<?xml version="1.0" encoding="utf-8"?>
<!-- Generator: Adobe Illustrator 15.0.0, SVG Export Plug-In . SVG Version: 6.00 Build 0)  -->
<!DOCTYPE svg PUBLIC "-//W3C//DTD SVG 1.1//EN" "http://www.w3.org/Graphics/SVG/1.1/DTD/svg11.dtd">
<svg version="1.1" id="Layer_1" xmlns="http://www.w3.org/2000/svg" xmlns:xlink="http://www.w3.org/1999/xlink" x="0px" y="0px"
	 width="2105.881px" height="2000px" viewBox="0 0 2105.881 2000" enable-background="new 0 0 2105.881 2000" xml:space="preserve">
<g>
	<path fill="#FFF500" d="M1052.089,0H315.4c0,0,0,747.065,0,964.959c0,546.465,666.652,725.988,736.689,725.988
		c70.038,0,736.689-179.523,736.689-725.988c0-217.894,0-964.959,0-964.959H1052.089L1052.089,0z"/>
	<rect x="346.528" y="31.128" fill="#1F1A17" width="1411.124" height="155.638"/>
	<g>
		<g>
			<path fill="#FFF500" d="M409.966,70.19h16.926v33.291l17.732-33.291h22.512l-19.989,33.25l20.888,54.843h-20.848l-11.549-36.229
				l-8.747,14.732v21.498h-16.926L409.966,70.19L409.966,70.19z"/>
			<path fill="#FFF500" d="M507.319,143.743h-19.219l-2.67,14.542h-17.286l20.591-88.094h18.467l20.584,88.094H510.06
				L507.319,143.743z M503.808,124.693l-6.046-31.667l-5.981,31.667H503.808z"/>
			<path fill="#FFF500" d="M533.203,70.19h31.688c5.279,0,9.333,2.104,12.16,6.311c2.83,4.206,4.246,9.413,4.246,15.623
				c0,5.208-1.008,9.674-3.03,13.4c-1.345,2.484-3.313,4.447-5.9,5.889c3.937,1.522,6.83,4.137,8.688,7.843
				c1.854,3.706,2.781,8.362,2.781,13.97c0,4.567-0.659,8.674-1.981,12.319c-1.318,3.646-3.125,6.529-5.416,8.653
				c-1.421,1.322-3.562,2.284-6.429,2.884c-3.81,0.802-6.338,1.202-7.584,1.202h-29.223V70.19L533.203,70.19z M550.281,104.743h7.36
				c2.641,0,4.478-0.731,5.511-2.192c1.033-1.463,1.553-3.577,1.553-6.341c0-2.563-0.521-4.567-1.553-6.009
				c-1.033-1.442-2.834-2.163-5.398-2.163h-7.473V104.743L550.281,104.743z M550.281,139.355h8.631c2.916,0,4.973-0.83,6.166-2.494
				c1.196-1.662,1.793-3.896,1.793-6.7c0-2.603-0.59-4.695-1.776-6.28c-1.18-1.581-3.257-2.373-6.221-2.373h-8.593V139.355z"/>
			<path fill="#FFF500" d="M626.363,70.19h16.889v52.485c0,5.205-0.506,10.119-1.512,14.742c-1.015,4.624-2.596,8.668-4.747,12.13
				c-2.156,3.464-4.418,5.896-6.784,7.297c-3.288,1.961-7.235,2.942-11.845,2.942c-2.665,0-5.573-0.3-8.727-0.899
				c-3.149-0.603-5.786-1.792-7.901-3.576c-2.118-1.781-4.055-4.313-5.813-7.596c-1.755-3.282-2.959-6.664-3.604-10.148
				c-1.047-5.604-1.568-10.568-1.568-14.893V70.19h16.889v53.735c0,4.803,0.826,8.557,2.485,11.257
				c1.656,2.703,3.954,4.052,6.896,4.052c2.912,0,5.197-1.329,6.854-3.992s2.487-6.434,2.487-11.317V70.19L626.363,70.19z"/>
			<path fill="#FFF500" d="M654.388,70.19h28.138c6.13,0,10.718,2.343,13.771,7.031c3.05,4.688,4.577,11.357,4.577,20.011
				c0,8.893-1.662,15.844-4.988,20.851c-3.326,5.008-8.4,7.512-15.227,7.512h-9.271v32.689h-17V70.19L654.388,70.19z
				 M671.388,107.748h4.149c3.263,0,5.555-0.911,6.875-2.735c1.32-1.821,1.979-4.155,1.979-7c0-2.764-0.571-5.107-1.718-7.031
				c-1.146-1.922-3.303-2.884-6.464-2.884h-4.823L671.388,107.748L671.388,107.748z"/>
			<path fill="#FFF500" d="M736.906,143.743h-19.224l-2.67,14.542h-17.279l20.589-88.094h18.464l20.585,88.094h-17.729
				L736.906,143.743z M733.392,124.693l-6.046-31.667l-5.981,31.667H733.392z"/>
			<path fill="#FFF500" d="M753.635,70.19h51.454v21.754h-17.264v66.34h-16.927v-66.34h-17.266L753.635,70.19L753.635,70.19z"/>
			<path fill="#FFF500" d="M812.714,70.19h45.364V89h-28.402v14h26.347v17.968h-26.347v17.366H858.9v19.95h-46.187V70.19
				L812.714,70.19z"/>
			<path fill="#FFF500" d="M868.129,70.19h15.807l20.625,48.737V70.19h15.954v88.094h-15.954l-20.516-48.37v48.37h-15.916V70.19z"/>
			<path fill="#FFF500" d="M957.323,70.19h31.688c5.279,0,9.333,2.104,12.162,6.311c2.83,4.206,4.243,9.413,4.243,15.623
				c0,5.208-1.008,9.674-3.027,13.4c-1.345,2.484-3.313,4.447-5.903,5.889c3.937,1.522,6.83,4.137,8.688,7.843
				c1.854,3.706,2.782,8.362,2.782,13.97c0,4.567-0.659,8.674-1.981,12.319c-1.318,3.646-3.126,6.529-5.416,8.653
				c-1.424,1.322-3.562,2.284-6.427,2.884c-3.813,0.802-6.34,1.202-7.587,1.202h-29.223L957.323,70.19L957.323,70.19z
				 M974.401,104.743h7.359c2.642,0,4.479-0.731,5.513-2.192c1.03-1.463,1.551-3.577,1.551-6.341c0-2.563-0.521-4.567-1.551-6.009
				c-1.032-1.442-2.834-2.163-5.399-2.163H974.4L974.401,104.743L974.401,104.743z M974.401,139.355h8.633
				c2.913,0,4.967-0.83,6.166-2.494c1.192-1.662,1.791-3.896,1.791-6.7c0-2.603-0.593-4.695-1.776-6.28
				c-1.18-1.581-3.255-2.373-6.221-2.373h-8.593V139.355z"/>
			<path fill="#FFF500" d="M1049.184,143.743h-19.219l-2.67,14.542h-17.282l20.59-88.094h18.462l20.584,88.094h-17.725
				L1049.184,143.743z M1045.67,124.693l-6.044-31.667l-5.983,31.667H1045.67z"/>
			<path fill="#FFF500" d="M1075.145,70.19h15.808l20.627,48.737V70.19h15.954v88.094h-15.954l-20.521-48.37v48.37h-15.916V70.19
				H1075.145z"/>
			<path fill="#FFF500" d="M1139.002,70.19h25.149c4.96,0,8.962,1.082,12.018,3.245c3.05,2.164,5.573,5.268,7.563,9.314
				c1.99,4.045,3.439,8.753,4.338,14.121c0.892,5.368,1.342,11.056,1.342,17.066c0,9.415-0.668,16.716-1.999,21.903
				c-1.333,5.188-3.183,9.535-5.55,13.039c-2.366,3.507-4.907,5.84-7.622,7.001c-3.711,1.602-7.075,2.404-10.09,2.404h-25.149V70.19
				z M1155.934,90.141v48.133h4.146c3.539,0,6.054-0.629,7.549-1.894c1.495-1.26,2.667-3.463,3.514-6.61
				c0.85-3.142,1.271-8.242,1.271-15.292c0-9.334-0.948-15.725-2.84-19.17c-1.894-3.445-5.034-5.167-9.416-5.167H1155.934z"/>
			<path fill="#FFF500" d="M1233.956,70.19h16.886v52.485c0,5.205-0.501,10.119-1.51,14.742c-1.008,4.624-2.591,8.668-4.747,12.13
				c-2.153,3.464-4.416,5.896-6.781,7.297c-3.291,1.961-7.233,2.942-11.845,2.942c-2.667,0-5.576-0.3-8.727-0.899
				c-3.151-0.603-5.783-1.792-7.901-3.576c-2.118-1.781-4.056-4.313-5.812-7.596c-1.756-3.282-2.959-6.664-3.604-10.148
				c-1.048-5.604-1.57-10.568-1.57-14.893V70.19h16.891v53.735c0,4.803,0.828,8.557,2.483,11.257
				c1.657,2.703,3.957,4.052,6.896,4.052c2.913,0,5.198-1.329,6.857-3.992c1.652-2.663,2.483-6.434,2.483-11.317V70.19
				L1233.956,70.19z"/>
			<path fill="#FFF500" d="M1262.168,70.19h15.807l20.629,48.737V70.19h15.953v88.094h-15.953l-20.52-48.37v48.37h-15.916V70.19z"/>
			<path fill="#FFF500" d="M1353.342,126.376v-18.329h26.16v37.557c-5.008,5.489-9.438,9.226-13.284,11.207
				c-3.851,1.984-8.415,2.975-13.696,2.975c-6.5,0-11.8-1.782-15.899-5.348c-4.101-3.565-7.272-8.874-9.527-15.925
				c-2.252-7.051-3.379-15.143-3.379-24.277c0-9.614,1.231-17.977,3.698-25.088c2.465-7.109,6.08-12.509,10.835-16.195
				c3.711-2.843,8.706-4.266,14.981-4.266c6.059,0,10.582,0.881,13.587,2.645c3,1.762,5.49,4.497,7.474,8.201
				c1.979,3.708,3.468,8.404,4.466,14.092l-16.329,4.688c-0.677-3.326-1.813-5.87-3.422-7.632c-1.604-1.762-3.652-2.644-6.144-2.644
				c-3.718,0-6.671,2.072-8.877,6.22c-2.209,4.144-3.312,10.705-3.312,19.679c0,9.533,1.116,16.344,3.35,20.43
				c2.228,4.087,5.337,6.13,9.318,6.13c1.896,0,3.701-0.44,5.421-1.322c1.72-0.881,3.688-2.384,5.905-4.506v-8.292H1353.342
				L1353.342,126.376z"/>
			<path fill="#FFF500" d="M1415.111,70.19h31.688c5.281,0,9.334,2.104,12.164,6.311c2.827,4.206,4.24,9.413,4.24,15.623
				c0,5.208-1.012,9.674-3.027,13.4c-1.34,2.484-3.313,4.447-5.902,5.889c3.937,1.522,6.832,4.137,8.688,7.843
				c1.857,3.706,2.784,8.362,2.784,13.97c0,4.567-0.659,8.674-1.979,12.319c-1.32,3.646-3.129,6.529-5.421,8.653
				c-1.419,1.322-3.562,2.284-6.427,2.884c-3.812,0.802-6.338,1.202-7.584,1.202h-29.224V70.19L1415.111,70.19z M1432.188,104.743
				h7.363c2.642,0,4.479-0.731,5.51-2.192c1.036-1.463,1.555-3.577,1.555-6.341c0-2.563-0.519-4.567-1.555-6.009
				c-1.029-1.442-2.832-2.163-5.396-2.163h-7.479v16.705H1432.188z M1432.188,139.355h8.635c2.918,0,4.973-0.83,6.165-2.494
				c1.198-1.662,1.794-3.896,1.794-6.7c0-2.603-0.59-4.695-1.773-6.28c-1.186-1.581-3.258-2.373-6.222-2.373h-8.599V139.355z"/>
			<path fill="#FFF500" d="M1506.972,143.743h-19.22l-2.67,14.542h-17.281l20.587-88.094h18.466l20.588,88.094h-17.729
				L1506.972,143.743z M1503.461,124.693l-6.047-31.667l-5.983,31.667H1503.461z"/>
			<path fill="#FFF500" d="M1533.041,158.284V70.19h28.215c5.229,0,9.231,0.721,11.995,2.164c2.766,1.442,4.992,4.118,6.688,8.021
				c1.692,3.908,2.543,8.664,2.543,14.272c0,4.888-0.651,9.106-1.945,12.649c-1.295,3.547-3.08,6.42-5.345,8.623
				c-1.447,1.402-3.433,2.565-5.945,3.486c2.016,1.083,3.482,2.167,4.404,3.248c0.624,0.722,1.523,2.266,2.708,4.632
				c1.184,2.366,1.974,4.191,2.371,5.473l8.196,25.526h-19.126l-9.049-26.921c-1.145-3.484-2.168-5.748-3.063-6.791
				c-1.224-1.361-2.604-2.043-4.147-2.043h-1.497v35.754L1533.041,158.284L1533.041,158.284z M1550.043,105.884h7.142
				c0.772,0,2.264-0.4,4.48-1.201c1.123-0.361,2.04-1.283,2.749-2.765s1.062-3.184,1.062-5.108c0-2.844-0.558-5.027-1.68-6.55
				c-1.122-1.523-3.228-2.283-6.315-2.283h-7.438V105.884z"/>
			<path fill="#FFF500" d="M1626.027,143.743h-19.222l-2.667,14.542h-17.285l20.59-88.094h18.462l20.587,88.094h-17.729
				L1626.027,143.743z M1622.515,124.693l-6.049-31.667l-5.981,31.667H1622.515z"/>
			<path fill="#FFF500" d="M1642.753,70.19h51.456v21.754h-17.264v66.34h-16.928v-66.34h-17.267L1642.753,70.19L1642.753,70.19z"/>
		</g>
	</g>
	<rect x="345.231" y="186.766" fill="#DA251D" width="1411.122" height="652.385"/>
	<g>
		<g>
			<g>
				<defs>
					<path id="SVGID_1_" d="M1052.089,1659.82c-24.794,0-202.272-39.885-377.73-153.1
						c-96.597-62.329-173.386-134.758-228.04-215.271c-66.281-97.631-99.983-207.48-99.983-326.491V31h1411v933.959
						c0,119.011-33.446,228.86-99.729,326.491c-54.654,80.515-131.27,152.941-227.862,215.271
						C1254.284,1619.938,1076.884,1659.82,1052.089,1659.82z"/>
				</defs>
				<clipPath id="SVGID_2_">
					<use xlink:href="#SVGID_1_"  overflow="visible"/>
				</clipPath>
				<rect x="346.333" y="874" clip-path="url(#SVGID_2_)" fill="#FFFFFF" width="1409" height="786"/>
			</g>
		</g>
		<g>
			<g>
				<defs>
					<path id="SVGID_3_" d="M1052.089,1659.82c-24.794,0-202.272-39.885-377.73-153.1
						c-96.597-62.329-173.386-134.758-228.04-215.271c-66.281-97.631-99.983-207.48-99.983-326.491V31h1411v933.959
						c0,119.011-33.446,228.86-99.729,326.491c-54.654,80.515-131.27,152.941-227.862,215.271
						C1254.284,1619.938,1076.884,1659.82,1052.089,1659.82z"/>
				</defs>
				<clipPath id="SVGID_4_">
					<use xlink:href="#SVGID_3_"  overflow="visible"/>
				</clipPath>
				<g clip-path="url(#SVGID_4_)">
					<path fill="#0093DD" d="M1757.333,979.226c-43,0-65.787-20.137-84.125-36.317c-16.423-14.49-29.313-25.938-56.745-25.938
						c-27.43,0-40.361,11.446-56.784,25.938c-18.338,16.181-41.143,36.317-84.268,36.317c-43.122,0-65.935-20.137-84.271-36.317
						c-16.423-14.49-29.388-25.938-56.817-25.938s-40.399,11.446-56.822,25.938c-18.338,16.181-41.161,36.317-84.286,36.317
						c-43.122,0-65.94-20.137-84.28-36.317c-16.422-14.49-29.393-25.938-56.822-25.938c-27.431,0-40.399,11.446-56.821,25.938
						c-18.338,16.181-41.159,36.317-84.281,36.317c-43.125,0-65.949-20.137-84.287-36.317
						c-16.423-14.49-29.395-25.938-56.827-25.938c-27.43,0-40.4,11.446-56.823,25.938c-18.337,16.182-41.162,36.317-84.284,36.317
						c-43.127,0-65.954-20.137-84.294-36.316c-16.425-14.491-29.397-25.938-56.834-25.938c-27.438,0-40.506,11.446-56.934,25.938
						c-18.34,16.181-41.391,36.316-84.391,36.316v-41.503c28,0,40.506-11.444,56.932-25.937
						c18.342-16.181,41.217-36.318,84.345-36.318c43.127,0,65.978,20.139,84.316,36.318c16.426,14.491,29.41,25.937,56.849,25.937
						c27.429,0,40.406-11.444,56.83-25.936c18.339-16.182,41.165-36.319,84.286-36.319c43.125,0,65.95,20.14,84.288,36.319
						c16.424,14.49,29.396,25.936,56.828,25.936c27.43,0,40.399-11.444,56.822-25.936c18.337-16.182,41.159-36.319,84.282-36.319
						c43.125,0,65.945,20.141,84.283,36.319c16.424,14.491,29.394,25.936,56.821,25.936c27.434,0,40.404-11.444,56.827-25.937
						c18.337-16.181,41.162-36.318,84.284-36.318c43.125,0,65.946,20.141,84.284,36.319c16.423,14.491,29.393,25.936,56.82,25.936
						c27.433,0,40.403-11.444,56.826-25.937c18.338-16.181,41.161-36.318,84.284-36.318c43.125,0,65.788,20.138,84.125,36.319
						c16.423,14.49,29.666,25.936,56.666,25.936v41.503H1757.333L1757.333,979.226z"/>
					<path fill="#0093DD" d="M1757.333,1098.549c-43,0-65.787-20.139-84.125-36.321c-16.423-14.487-29.313-25.935-56.745-25.935
						c-27.43,0-40.361,11.445-56.784,25.935c-18.338,16.185-41.143,36.321-84.268,36.321c-43.122,0-65.935-20.139-84.271-36.321
						c-16.423-14.487-29.388-25.935-56.817-25.935s-40.399,11.445-56.822,25.935c-18.338,16.185-41.161,36.321-84.286,36.321
						c-43.122,0-65.94-20.139-84.28-36.321c-16.422-14.487-29.393-25.935-56.822-25.935c-27.431,0-40.399,11.445-56.821,25.935
						c-18.338,16.185-41.159,36.321-84.281,36.321c-43.125,0-65.949-20.139-84.287-36.321
						c-16.423-14.487-29.395-25.935-56.827-25.935c-27.43,0-40.4,11.445-56.823,25.935c-18.337,16.185-41.162,36.321-84.284,36.321
						c-43.127,0-65.954-20.139-84.294-36.318c-16.425-14.49-29.397-25.938-56.834-25.938c-27.438,0-40.506,11.445-56.934,25.938
						c-18.34,16.182-41.391,36.318-84.391,36.318v-41.504c28,0,40.506-11.445,56.932-25.938
						c18.342-16.181,41.217-36.318,84.345-36.318c43.127,0,65.978,20.139,84.316,36.318c16.426,14.49,29.41,25.938,56.849,25.938
						c27.429,0,40.406-11.445,56.83-25.936c18.339-16.183,41.165-36.32,84.286-36.32c43.125,0,65.95,20.139,84.288,36.32
						c16.424,14.488,29.396,25.936,56.828,25.936c27.43,0,40.399-11.445,56.822-25.936c18.337-16.183,41.159-36.32,84.282-36.32
						c43.125,0,65.945,20.139,84.283,36.32c16.424,14.488,29.394,25.936,56.821,25.936c27.434,0,40.404-11.445,56.827-25.938
						c18.337-16.181,41.162-36.318,84.284-36.318c43.125,0,65.946,20.139,84.284,36.321c16.423,14.487,29.393,25.935,56.82,25.935
						c27.433,0,40.403-11.445,56.826-25.938c18.338-16.181,41.161-36.318,84.284-36.318c43.125,0,65.788,20.139,84.125,36.321
						c16.423,14.489,29.666,25.935,56.666,25.935v41.504H1757.333L1757.333,1098.549z"/>
					<path fill="#0093DD" d="M1757.333,1223.061c-43,0-65.787-20.14-84.125-36.32c-16.423-14.489-29.313-25.937-56.745-25.937
						c-27.43,0-40.361,11.445-56.784,25.937c-18.338,16.183-41.143,36.32-84.268,36.32c-43.122,0-65.935-20.14-84.271-36.32
						c-16.423-14.489-29.388-25.937-56.817-25.937s-40.399,11.445-56.822,25.937c-18.338,16.183-41.161,36.32-84.286,36.32
						c-43.122,0-65.94-20.14-84.28-36.32c-16.422-14.489-29.393-25.937-56.822-25.937c-27.431,0-40.399,11.445-56.821,25.937
						c-18.338,16.183-41.159,36.32-84.281,36.32c-43.125,0-65.949-20.14-84.287-36.32c-16.423-14.489-29.395-25.937-56.827-25.937
						c-27.43,0-40.4,11.445-56.823,25.937c-18.337,16.183-41.162,36.32-84.284,36.32c-43.127,0-65.954-20.14-84.294-36.317
						c-16.425-14.492-29.397-25.938-56.834-25.938c-27.438,0-40.506,11.445-56.934,25.938c-18.34,16.18-41.391,36.317-84.391,36.317
						v-41.505c28,0,40.506-11.442,56.932-25.938c18.342-16.179,41.217-36.317,84.345-36.317c43.127,0,65.978,20.141,84.316,36.317
						c16.426,14.493,29.41,25.938,56.849,25.938c27.429,0,40.406-11.442,56.83-25.935c18.339-16.182,41.165-36.32,84.286-36.32
						c43.125,0,65.95,20.141,84.288,36.32c16.424,14.49,29.396,25.935,56.828,25.935c27.43,0,40.399-11.442,56.822-25.935
						c18.337-16.182,41.159-36.32,84.282-36.32c43.125,0,65.945,20.141,84.283,36.32c16.424,14.49,29.394,25.935,56.821,25.935
						c27.434,0,40.404-11.442,56.827-25.938c18.337-16.179,41.162-36.317,84.284-36.317c43.125,0,65.946,20.141,84.284,36.32
						c16.423,14.49,29.393,25.935,56.82,25.935c27.433,0,40.403-11.442,56.826-25.938c18.338-16.179,41.161-36.317,84.284-36.317
						c43.125,0,65.788,20.141,84.125,36.32c16.423,14.49,29.666,25.935,56.666,25.935v41.505H1757.333z"/>
					<polygon fill="#00923F" stroke="#000000" stroke-miterlimit="10" points="1280.359,651.088 1052.089,651.088 1049.495,651.088 
						821.225,651.088 520.324,837.854 1049.495,837.854 1052.089,837.854 1581.26,837.854 					"/>
					<path fill="#1F1A17" d="M1700.826,1280.132c-18.337-16.182-41.158-36.319-84.283-36.319c-43.123,0-65.946,20.14-84.284,36.317
						c-16.423,14.492-29.396,25.938-56.827,25.938c-27.429,0-40.396-11.444-56.819-25.937
						c-18.338-16.182-41.159-36.319-84.284-36.319c-43.122,0-65.946,20.14-84.284,36.317
						c-16.423,14.492-29.395,25.938-56.827,25.938c-27.429,0-40.398-11.444-56.821-25.937
						c-18.337-16.182-41.159-36.319-84.284-36.319c-43.123,0-65.943,20.14-84.28,36.319c-16.423,14.49-29.394,25.937-56.822,25.937
						c-27.432,0-40.403-11.444-56.827-25.937c-18.337-16.182-41.162-36.319-84.285-36.319s-65.945,20.14-84.284,36.319
						c-16.422,14.49-29.396,25.937-56.823,25.937c-27.438,0-40.409-11.444-56.834-25.938c-18.341-16.18-41.167-36.317-84.294-36.317
						s-65.954,20.14-84.294,36.317c-16.425,14.492-29.398,25.938-56.834,25.938v1.297v40.207v341.105H1757.65V1347.57v-40.207
						v-1.297C1730.218,1306.066,1717.249,1294.622,1700.826,1280.132z"/>
					<polygon fill="#1F1A17" points="1742.086,838 1713.333,838 1713.333,791 1669.333,791 1669.333,838 1638.333,838 1638.333,791 
						1591.333,791 1591.333,838 1563.333,838 1563.333,791 1516.333,791 1516.333,838 1488.333,838 1488.333,791 1443.333,791 
						1443.333,838 1415.333,838 1415.333,791 1366.333,791 1366.333,838 1337.333,838 1337.333,791 1290.333,791 1290.333,838 
						1262.333,838 1262.333,791 1218.333,791 1218.333,838 1189.333,838 1189.333,791 1140.333,791 1140.333,838 1111.333,838 
						1111.333,791 1067.333,791 1067.333,838 1036.333,838 1036.333,791 992.333,791 992.333,838 964.333,838 964.333,791 
						914.333,791 914.333,838 886.333,838 886.333,791 842.333,791 842.333,838 813.333,838 813.333,791 766.333,791 766.333,838 
						738.333,838 738.333,791 689.333,791 689.333,838 660.333,838 660.333,791 616.333,791 616.333,838 587.333,838 587.333,791 
						541.333,791 541.333,838 512.333,838 512.333,791 466.333,791 466.333,838 434.333,838 434.333,791 390.333,791 390.333,838 
						346.333,838 346.333,874 390.625,874 465.742,874 540.86,874 615.977,874 691.093,874 766.212,874 841.329,874 916.445,874 
						991.564,874 1066.68,874 1141.796,874 1216.916,874 1292.032,874 1367.148,874 1442.267,874 1517.383,874 1592.5,874 
						1667.619,874 1713.553,874 1742.086,874 1757.333,874 1757.333,838 					"/>
					<g>
						<path fill="#00923F" stroke="#000000" stroke-width="0.5" stroke-miterlimit="10" d="M434.074,497.07
							c0,0,39.232,0.973,56.419,26.264c17.185,25.292,32.425,89.168,31.774,110.568c0,0-8.104-19.131-23.346-34.047
							s-28.209-23.671-46.691-48.962c-18.481-25.291-18.157-54.798-18.157-54.798"/>
						
							<ellipse fill="#FFFFFF" stroke="#000000" stroke-width="0.5" stroke-miterlimit="10" cx="529.727" cy="494.639" rx="32.749" ry="26.102"/>
						<path fill="#00923F" stroke="#000000" stroke-width="0.5" stroke-miterlimit="10" d="M623.455,497.07
							c0,0-39.234,0.973-56.419,26.264c-17.187,25.292-32.424,89.168-31.776,110.568c0,0,8.106-19.131,23.348-34.047
							c15.238-14.916,28.209-23.671,46.689-48.962c18.482-25.291,18.158-54.798,18.158-54.798"/>
						<path fill="#FFFFFF" stroke="#000000" stroke-width="0.5" stroke-miterlimit="10" d="M576.824,491.559
							c-19.029,3.893-27.768,19.132-27.768,19.132c3.747-12.646-19.653-25.616-19.653-25.616s-24.318,12.97-20.429,25.616
							c0,0-9.079-15.24-28.856-19.132l-1.938,0.434c0,0,9.718,14.481,23.013,29.397c13.294,14.915,28.209,30.155,28.209,38.91
							c0-8.755,14.353-23.995,27.143-38.91c12.792-14.916,22.143-29.397,22.143-29.397L576.824,491.559z"/>
						<path fill="#FFF500" stroke="#000000" stroke-miterlimit="10" d="M528.333,640.172c0,0-6.5,12.699-6.5,38.799
							c0,13.619,0,61.528,0,61.528h13v-63.472C534.833,677.028,532.873,645.251,528.333,640.172z"/>
					</g>
					<g>
						<path fill="#00923F" stroke="#000000" stroke-width="0.5" stroke-miterlimit="10" d="M1636.061,560.299v153.044h75.227
							V560.299H1636.061z M1685.346,651.088h-25.938v-38.91h25.938V651.088z M1685.346,604.396h-25.938v-38.91h25.938V604.396z"/>
						<path fill="#00923F" stroke="#000000" stroke-width="0.5" stroke-miterlimit="10" d="M1578.651,562.244l-0.313,151.099h57.721
							v-86.896L1578.651,562.244z M1594.557,606.99l23.348,17.958V645.9h-23.348V606.99z M1623.09,695.186h-33.722v-28.532h33.722
							V695.186z"/>
						<path fill="#00923F" stroke="#000000" stroke-width="0.5" stroke-miterlimit="10" d="M1521.259,562.244l-0.641,151.099h58.374
							v-86.896L1521.259,562.244z M1540.083,606.99l18.157,17.958V645.9h-18.157V606.99z M1566.023,695.186H1532.3v-28.532h33.724
							V695.186z"/>
						<path fill="#00923F" stroke="#000000" stroke-width="0.5" stroke-miterlimit="10" d="M1462.884,562.244l-0.641,151.099h58.375
							v-86.896L1462.884,562.244z M1481.708,606.99l18.158,17.958V645.9h-18.158V606.99z M1507.648,695.186h-33.724v-28.532h33.724
							V695.186z"/>
					</g>
					<polygon fill="#03428B" points="343.934,189 1755.056,189 1280.359,651 821.225,651 					"/>
					<g>
						<path fill="#FFF500" stroke="#000000" stroke-miterlimit="10" d="M1280.395,651.088v-95.977
							c0-118.431-99.42-214.437-222.054-214.437c-2.746,0-5.469,0.104-8.19,0.2c-2.728-0.096-5.449-0.2-8.195-0.2
							c-122.634,0-222.053,96.006-222.053,214.437v95.977H1280.395z"/>
						<path fill="none" stroke="#000000" stroke-miterlimit="10" d="M819.9,513.607c0,0,129.169-42.802,230.155-42.802
							c100.985,0,226.171,42.802,226.171,42.802"/>
						<path fill="none" stroke="#000000" stroke-miterlimit="10" d="M842.648,460.488c0,0,119.541-37.021,207.5-37.021
							s207.494,37.021,207.494,37.021"/>
						<path fill="#FFF500" stroke="#000000" stroke-miterlimit="10" d="M1048.854,334.623v166.014l-93.132,5.836
							c0,0,38.805-2.594,46.565-39.558s-7.762-116.081-7.762-116.081S1004.875,335.92,1048.854,334.623z"/>
						<path fill="#FFF500" stroke="#000000" stroke-miterlimit="10" d="M1048.854,334.623v166.014l93.137,5.836
							c0,0-38.808-2.594-46.568-39.558s7.762-116.081,7.762-116.081S1092.833,335.92,1048.854,334.623z"/>
						<path fill="#FFF500" stroke="#000000" stroke-miterlimit="10" d="M809.552,566.784c0,0,145.521-22.372,240.598-22.372
							c95.071,0,243.827,22.372,243.827,22.372s-44.627-70.901-245.123-70.901S809.552,566.784,809.552,566.784z"/>
					</g>
				</g>
			</g>
		</g>
	</g>
	<path fill="#FFF500" stroke="#000000" stroke-miterlimit="10" d="M407.162,1317.091c-34.134-64.446-41.179-66.471-51.555-79.765
		c-21.489-27.533-66.146-51.879-113.486-100.519c-47.34-48.637-106.353-105.056-108.298-142.02c0,0-7.782,65.498,0,94.68
		c7.782,29.185,21.4,108.299,21.4,108.299s-62.904-0.646-90.789-20.104c-27.886-19.455-62.904-27.886-64.85-51.88
		c0,0,27.237,129.051,90.789,211.408c63.552,82.357,142.013,127.217,203.622,128.135
		C355.606,1466.244,407.162,1317.091,407.162,1317.091z"/>
	<path fill="#FFF500" stroke="#000000" stroke-miterlimit="10" d="M303.079,1374.158l54.332-20.797c0,0,41.97-22.652,49.751-36.271
		c0,0,14.591,22.697,2.918,38.262c-11.673,15.563-33.073,22.697-38.91,62.903c-5.836,40.207,35.667,169.905,35.667,169.905
		l-171.202-107.649l25.94-83.008L303.079,1374.158z"/>
	<path fill="#FFF500" stroke="#000000" stroke-miterlimit="10" d="M1698.303,1317.091c34.135-64.446,41.181-66.471,51.557-79.765
		c21.487-27.533,66.146-51.879,113.485-100.519c47.34-48.637,106.354-105.056,108.298-142.02c0,0,7.782,65.498,0,94.68
		c-7.781,29.184-21.398,108.299-21.398,108.299s62.902-0.646,90.789-20.104c27.886-19.455,62.902-27.886,64.85-51.88
		c0,0-27.234,129.051-90.789,211.408c-63.553,82.357-142.013,127.217-203.622,128.135
		C1749.858,1466.244,1698.303,1317.091,1698.303,1317.091z"/>
	<path fill="#FFF500" stroke="#000000" stroke-miterlimit="10" d="M1802.386,1374.158l-54.332-20.797
		c0,0-41.969-22.652-49.751-36.271c0,0-14.591,22.697-2.918,38.262c11.673,15.563,33.073,22.697,38.909,62.903
		c5.837,40.207-35.667,169.905-35.667,169.905l171.202-107.649l-25.938-83.008L1802.386,1374.158z"/>
	<path fill="#FFF500" stroke="#000000" stroke-miterlimit="10" d="M1892.537,1503.857c0-71.982-32.424-109.598-47.34-121.271
		c-14.915-11.673-42.151-8.431-42.151-8.431c23.994,16.859,26.588,40.854,26.588,40.854c0,194.936-677.028,287.934-776.571,289.19
		c-83.112-1.044-776.57-94.257-776.57-289.19c0,0,2.594-23.994,26.588-40.854c0,0-27.237-3.242-42.152,8.431
		c-14.915,11.673-47.34,49.286-47.34,121.271c0,71.981,13.618,110.244,13.618,146.56s-2.933,46.043-2.933,46.043
		s250.476,286.414,828.466,286.629v0.005c0.107,0,0.215-0.002,0.323-0.002c0.109,0,0.217,0.002,0.324,0.002v-0.005
		c577.99-0.215,828.467-286.629,828.467-286.629s-2.935-9.728-2.935-46.043S1892.537,1575.84,1892.537,1503.857z"/>
	<g>
		<g>
			<path d="M276.318,1531.188c6.362,4.323,9.554,6.464,15.96,10.688c1.922,27.543,3.847,55.086,5.773,82.629
				c2.823-24.452,5.648-48.904,8.475-73.354c6.421,4.123,9.644,6.16,16.107,10.188c2.856,28.016,5.716,56.027,8.583,84.04
				c1.956-25.053,3.914-50.104,5.872-75.158c6.491,3.936,9.747,5.875,16.278,9.714c-4.108,44.508-8.206,89.016-12.3,133.522
				c-6.747-4.058-10.108-6.112-16.811-10.272c-3.235-31.578-6.459-63.157-9.682-94.736c-3.202,27.514-6.404,55.027-9.603,82.541
				c-6.65-4.283-9.963-6.449-16.567-10.836C284.363,1630.496,280.336,1580.843,276.318,1531.188z"/>
			<path d="M359.708,1583.632c6.944,4.029,10.426,6.017,17.413,9.938c0,46.944,0.002,93.893,0,140.839
				c-6.987-3.921-10.47-5.911-17.414-9.94C359.709,1677.521,359.708,1630.577,359.708,1583.632z"/>
			<path d="M389.333,1600.538c11,5.968,22.072,11.794,33.135,17.467c5.522,2.832,9.866,8.332,12.833,16.54
				s4.501,17.271,4.501,27.195c0,8.326-1.039,14.941-3.157,19.844c-1.412,3.268-6.146,6.165-6.183,6.305
				c-0.248,0.976,7.173,10.213,9.124,17.104s2.93,14.813,2.93,23.779c0,7.301-0.69,13.526-2.08,18.669
				c-1.39,5.142-3.295,8.812-5.69,11.003c-1.491,1.361-3.74,1.771-6.739,1.213c-3.992-0.745-6.813-1.469-8.116-2.141
				c-10.173-5.3-20.557-10.677-30.557-16.141C389.333,1694.43,389.333,1647.483,389.333,1600.538z M407.333,1665.311
				c3,1.619,4.635,2.427,7.706,4.024c2.754,1.436,4.694,1.252,5.775-0.53c1.078-1.779,1.63-4.883,1.63-9.302
				c0-4.099-0.537-7.579-1.616-10.438c-1.081-2.862-2.997-4.983-5.673-6.376c-3.119-1.623-4.822-2.441-7.822-4.087
				C407.333,1649.283,407.333,1654.627,407.333,1665.311z M407.333,1720.645c4,1.899,5.43,2.846,9.033,4.717
				c3.042,1.578,5.209,1.354,6.46-0.664c1.25-2.019,1.885-5.271,1.885-9.752c0-4.162-0.616-7.824-1.852-10.988
				c-1.237-3.164-3.442-5.543-6.535-7.149c-3.587-1.861-4.991-2.802-8.991-4.691
				C407.333,1701.623,407.333,1711.134,407.333,1720.645z"/>
			<path d="M486.175,1766.146c-8.189-3.687-12.272-5.563-20.418-9.387c-1.131,8.771-1.698,13.149-2.829,21.915
				c-7.316-3.457-10.966-5.214-18.244-8.784c7.235-43.471,14.49-86.938,21.745-130.402c7.826,3.67,11.75,5.473,19.62,9.014
				c7.303,50.173,14.641,100.341,21.996,150.506c-7.599-3.261-11.389-4.922-18.95-8.302
				C487.926,1780.884,487.343,1775.972,486.175,1766.146z M482.435,1734.004c-2.145-17.854-4.288-35.708-6.43-53.563
				c-2.117,15.896-4.235,31.791-6.351,47.688C474.758,1730.506,477.313,1731.682,482.435,1734.004z"/>
			<path d="M508.406,1658.324c6.893,2.956,10.347,4.408,17.271,7.266c2.077,27.133,4.154,54.266,6.237,81.398
				c3.046-25.055,6.094-50.104,9.144-75.156c6.926,2.761,10.396,4.115,17.348,6.779c3.069,27.412,6.146,54.822,9.226,82.234
				c2.102-25.465,4.202-50.929,6.305-76.394c6.968,2.571,10.455,3.837,17.447,6.313c-4.396,45.363-8.785,90.729-13.179,136.093
				c-7.236-2.646-10.847-3.995-18.054-6.745c-3.475-30.897-6.949-61.794-10.416-92.692c-3.448,28.192-6.904,56.384-10.352,84.577
				c-7.172-2.871-10.751-4.334-17.892-7.311C517.118,1755.902,512.759,1707.113,508.406,1658.324z"/>
			<path d="M634.419,1822.803c-8.474-2.688-12.7-4.068-21.14-6.898c-1.173,8.904-1.761,13.356-2.934,22.262
				c-7.585-2.563-11.371-3.871-18.927-6.547c7.513-44.357,15.032-88.713,22.555-133.068c8.109,2.714,12.175,4.04,20.313,6.625
				c7.553,49.284,15.135,98.563,22.737,147.84c-7.85-2.344-11.769-3.546-19.587-6.009
				C636.231,1837.325,635.628,1832.486,634.419,1822.803z M630.551,1791.113c-2.221-17.594-4.438-35.188-6.656-52.781
				c-2.195,16.153-4.387,32.309-6.576,48.463C622.604,1788.549,625.251,1789.414,630.551,1791.113z"/>
			<path d="M691.121,1721.882c9.912,2.687,14.877,3.979,24.827,6.479c3.193,29.354,6.396,58.71,9.599,88.063
				c3.185-27.802,6.363-55.604,9.543-83.405c9.971,2.354,14.965,3.48,24.968,5.646c0,46.944,0.001,93.891,0,140.836
				c-6.231-1.349-9.347-2.04-15.565-3.461c0.001-35.802,0-71.604,0-107.404c-3.991,34.871-7.981,69.742-11.975,104.613
				c-5.62-1.337-8.43-2.022-14.038-3.419c-3.973-36.809-7.942-73.614-11.907-110.422c0.003,35.802,0.004,71.603,0,107.402
				c-6.188-1.599-9.277-2.418-15.45-4.09C691.122,1815.773,691.121,1768.827,691.121,1721.882z"/>
			<path d="M812.425,1748.932c7.641,1.348,11.462,1.993,19.115,3.23c0,27.97,0.004,55.938,0,83.908
				c0,8.318-0.57,16.085-1.712,23.291c-1.145,7.207-2.937,13.375-5.374,18.504c-2.439,5.129-5.009,8.582-7.676,10.358
				c-3.719,2.479-8.186,3.276-13.392,2.323c-3.012-0.551-6.298-1.643-9.852-3.279c-3.558-1.638-6.527-4.124-8.914-7.441
				c-2.387-3.318-4.569-7.803-6.547-13.451c-1.979-5.648-3.287-11.337-4.018-17.053c-1.176-9.2-1.725-17.263-1.725-24.174
				c0-27.971,0-55.939,0-83.909c8,1.571,11,2.333,19,3.798c0,28.636,0,57.271,0,85.906c0,7.68,0.908,13.859,2.778,18.533
				c1.87,4.678,4.449,7.322,7.77,7.936c3.292,0.605,5.871-1.057,7.743-4.979c1.873-3.921,2.807-9.789,2.807-17.597
				C812.431,1806.203,812.425,1777.567,812.425,1748.932z"/>
			<path d="M844.226,1754.166c7.682,1.168,12.107,1.726,19.107,2.785c0,17.741,0,35.482,0,53.224
				c7-16.862,13.554-33.729,20.262-50.599c10.245,1.258,15.428,1.839,25.688,2.904c-7.573,16.875-15.133,33.744-22.736,50.604
				c7.912,30.116,15.847,60.23,23.798,90.337c-9.502-0.979-14.244-1.51-23.73-2.653c-4.386-19.854-8.864-39.709-13.237-59.566
				c-3.977,8.902-6.042,13.347-10.042,22.221c0,11.455,0,22.911,0,34.366c-7-1.062-11.481-1.615-19.161-2.783
				C844.175,1848.059,844.226,1801.112,844.226,1754.166z"/>
			<path d="M912.333,1762.791c20,1.984,39,3.553,59,4.707c0,11.593,0,23.186,0,34.778c-8-0.464-11.958-0.727-19.843-1.303
				c0,35.354-0.063,70.707-0.063,106.063c-7.73-0.565-11.627-0.877-19.352-1.551c0.003-35.354-0.026-70.707-0.029-106.063
				c-7.878-0.687-11.714-1.056-19.714-1.854C912.333,1785.977,912.333,1774.384,912.333,1762.791z"/>
			<path d="M980.613,1768.025c7.757,0.4,11.637,0.572,19.396,0.865c-0.004,46.946,0.003,93.895-0.001,140.84
				c-7.761-0.293-11.64-0.468-19.396-0.868C980.609,1861.917,980.613,1814.971,980.613,1768.025z"/>
			<path d="M1043.076,1769.85c7.748,0.053,11.258,0.047,19.258-0.012c0,17.741,0,35.482,0,53.225
				c7-17.838,13.651-35.679,20.4-53.523c10.303-0.229,15.51-0.393,25.809-0.813c-7.6,17.979-15.188,35.945-22.836,53.902
				c7.948,28.969,15.927,57.933,23.904,86.895c-9.535,0.396-14.297,0.553-23.836,0.782c-4.407-19.219-8.928-38.438-13.323-57.659
				c-4.003,9.48-6.117,14.213-10.117,23.664c0,11.455,0,22.911,0,34.366c-8,0.058-11.567,0.062-19.313,0.01
				C1043.024,1863.741,1043.076,1816.795,1043.076,1769.85z"/>
			<path d="M1115.991,1768.404c17.296-0.868,34.559-1.988,51.821-3.367c0,10.023-0.024,20.046-0.022,30.069
				c-10.808,0.86-21.456,1.642-32.456,2.338c0,8.953,0,13.43,0,22.384c10-0.605,20-1.319,30-2.143c0,9.573,0,19.147,0,28.725
				c-10,0.823-20,1.537-30,2.143c0,11.105,0,16.66,0,27.768c11-0.721,22-1.523,33-2.418c0,10.631,0,21.263,0,31.894
				c-17,1.414-34.941,2.563-52.552,3.449C1115.783,1862.297,1115.991,1815.351,1115.991,1768.404z"/>
			<path d="M1179.333,1904.854c0-46.945,0-93.894,0-140.84c11-1.032,21.474-2.148,32.184-3.348
				c5.955-0.691,10.521-0.105,13.666,1.804c3.146,1.909,5.688,5.856,7.614,11.849c1.925,5.988,2.896,13.466,2.896,22.432
				c0,7.813-0.736,14.653-2.21,20.518c-1.475,5.863-3.497,10.727-6.076,14.574c-1.646,2.453-6.763,6.296-6.763,6.42
				c0,0.423,3.964,2.98,5.014,4.569c0.703,1.063,1.732,3.399,3.078,7.011c1.344,3.61,2.244,6.408,2.695,8.4
				c3.103,13.188,6.207,26.375,9.314,39.562c-8.69,1.196-13.041,1.761-21.745,2.816c-3.434-13.942-6.867-27.885-10.297-41.828
				c-1.306-5.423-2.463-8.937-3.489-10.461c-1.354-2.017-3.193-2.938-4.953-2.748c-0.681,0.073-0.929,0.108-1.929,0.182
				c0,19.056,0,38.106,0,57.16C1191.333,1903.749,1187.333,1904.136,1179.333,1904.854z M1198.333,1819.152
				c4-0.349,5.107-0.524,8.358-0.893c0.878-0.099,2.713-1.017,5.217-2.508c1.234-0.735,2.375-2.323,3.183-4.789
				c0.81-2.464,1.241-5.232,1.241-8.308c0-4.547-0.624-7.961-1.9-10.245c-1.273-2.281-3.894-3.215-7.41-2.818
				c-3.387,0.382-4.688,0.566-8.688,0.93C1198.333,1800.064,1198.333,1809.608,1198.333,1819.152z"/>
			<path d="M1241.333,1756.822c20-2.698,39-5.813,59-9.344c0,11.593,0,23.186,0,34.776c-8,1.422-11.843,2.104-19.659,3.414
				c0.003,35.354-0.083,70.706-0.082,106.059c-7.665,1.284-11.259,1.897-19.259,3.072c0-35.354,0-70.707,0-106.061
				c-8,1.196-12,1.771-20,2.855C1241.333,1780.007,1241.333,1768.414,1241.333,1756.822z"/>
			<path d="M1340.801,1857.006c-8.645,1.846-12.974,2.733-21.64,4.439c-1.204,9.537-1.806,14.305-3.01,23.839
				c-7.798,1.517-11.7,2.246-19.515,3.648c7.766-48.401,15.516-96.809,23.239-145.218c8.326-1.644,12.485-2.496,20.791-4.27
				c7.71,45.229,15.413,90.462,23.114,135.691c-7.949,1.84-11.932,2.729-19.9,4.45
				C1342.65,1870.558,1342.034,1866.042,1340.801,1857.006z M1336.851,1827.39c-2.265-16.403-4.534-32.81-6.804-49.214
				c-2.246,17.331-4.493,34.663-6.74,51.994C1328.729,1829.085,1331.438,1828.529,1336.851,1827.39z"/>
			<path d="M1398.333,1866.604c0-46.944,0-93.891,0-140.836c11-2.766,21.082-5.605,31.531-8.529
				c5.807-1.651,10.302-1.798,13.364-0.396c3.062,1.402,5.563,4.938,7.437,10.615s2.827,13.001,2.827,21.967
				c0,7.814-0.706,14.772-2.141,20.875c-1.436,6.103-3.402,11.291-5.913,15.559c-1.603,2.719-6.603,7.369-6.584,7.51
				c0.046,0.388,3.857,2.342,4.882,3.761c0.684,0.949,1.688,3.122,2.999,6.515c1.309,3.394,2.185,6.047,2.625,7.966
				c3.017,12.685,6.042,25.366,9.063,38.052c-8.451,2.602-12.686,3.869-21.168,6.332c-3.346-13.391-6.696-26.775-10.039-40.164
				c-1.271-5.212-2.403-8.541-3.404-9.9c-1.319-1.792-2.894-2.46-4.609-1.984c-0.665,0.184-0.998,0.272-1.663,0.457
				c0,19.054-0.13,38.104-0.132,57.16C1409.839,1863.628,1406.333,1864.637,1398.333,1866.604z M1417.333,1777.782
				c3-0.871,4.863-1.313,8.035-2.201c0.855-0.24,2.581-1.428,5.033-3.331c1.204-0.938,2.284-2.695,3.07-5.292
				c0.787-2.595,1.193-5.431,1.193-8.505c0-4.547-0.613-7.857-1.857-9.938c-1.24-2.076-3.68-2.623-7.109-1.659
				c-3.304,0.931-4.365,1.388-8.365,2.293C1417.333,1758.695,1417.333,1768.238,1417.333,1777.782z"/>
			<path d="M1501.436,1812.391c-8.422,2.898-12.643,4.313-21.1,7.07c-1.175,9.683-1.762,14.523-2.938,24.203
				c-7.61,2.463-11.424,3.665-19.062,6.016c7.594-49.34,15.155-98.685,22.696-148.033c8.124-2.652,12.181-4.015,20.271-6.799
				c7.505,44.291,15.005,88.584,22.497,132.877c-7.729,2.813-11.604,4.188-19.369,6.877
				C1503.236,1825.719,1502.637,1821.277,1501.436,1812.391z M1497.587,1783.254c-2.216-16.127-4.418-32.257-6.635-48.384
				c-2.186,17.604-4.376,35.208-6.572,52.812C1489.669,1785.938,1492.313,1785.052,1497.587,1783.254z"/>
			<path d="M1529.333,1684.713c8-2.719,11-4.107,19-6.935c0,16.428,0,32.854,0,49.28c8-3.09,12-4.666,20-7.886
				c0-16.428,0-32.854,0-49.282c7-2.959,11-4.467,18-7.533c0,46.943,0,93.89,0,140.834c-7,3.067-10.9,4.576-18.242,7.535
				c0-18.987,0.125-37.979,0.125-56.969c-7.983,3.219-11.883,4.795-19.883,7.885c0,18.989,0,37.979,0,56.971
				c-8,2.826-11,4.216-19,6.935C1529.333,1778.604,1529.333,1731.658,1529.333,1684.713z"/>
			<path d="M1634.433,1758.718c-8.151,3.796-12.238,5.661-20.438,9.316c-1.141,9.808-1.713,14.71-2.854,24.515
				c-7.38,3.271-11.079,4.876-18.495,8.033c7.373-50.142,14.717-100.287,22.023-150.438c7.877-3.519,11.807-5.311,19.641-8.954
				c7.267,43.488,14.521,86.979,21.768,130.475c-7.475,3.639-11.223,5.427-18.736,8.946
				C1636.176,1771.855,1635.596,1767.477,1634.433,1758.718z M1630.707,1729.993c-2.136-15.896-4.282-31.787-6.426-47.681
				c-2.118,17.837-4.246,35.673-6.369,53.51C1623.039,1733.518,1625.597,1732.354,1630.707,1729.993z"/>
			<path d="M1661.975,1768.773c0.004-46.945,0.001-93.892,0.001-140.836c9.893-4.927,19.732-9.925,29.546-15.005
				c5.452-2.852,9.605-3.915,12.478-3.146c2.871,0.767,5.181,3.793,6.937,9.083c1.755,5.291,2.631,12.417,2.631,21.383
				c0,7.814-0.669,14.92-2.014,21.319c-1.342,6.396-3.189,11.999-5.544,16.785c-1.499,3.051-6.202,8.763-6.172,8.876
				c0.089,0.318,3.619,1.539,4.576,2.746c0.642,0.807,1.583,2.771,2.812,5.893c1.227,3.122,2.046,5.596,2.458,7.423
				c2.833,12.056,5.655,24.113,8.479,36.171c-7.901,4.356-11.867,6.5-19.824,10.718c-3.139-12.694-6.28-25.393-9.426-38.088
				c-1.196-4.948-2.259-8.044-3.198-9.193c-1.232-1.516-2.718-1.864-4.333-1.036c-0.625,0.318-0.938,0.479-1.564,0.798
				c0,19.054,0.001,38.104,0.004,57.16C1672.701,1763.456,1669.13,1765.248,1661.975,1768.773z M1679.813,1676.051
				c2.985-1.523,4.48-2.294,7.462-3.839c0.805-0.417,2.361-1.936,4.676-4.355c1.134-1.188,2.121-3.16,2.86-5.921
				c0.738-2.758,1.108-5.678,1.108-8.752c0-4.547-0.585-7.729-1.752-9.552c-1.166-1.816-3.36-1.883-6.584-0.21
				c-3.104,1.61-4.658,2.41-7.77,4C1679.811,1656.965,1679.813,1666.508,1679.813,1676.051z"/>
			<path d="M1747.333,1582.189c7-4.047,10-6.1,17-10.252c0,25.505,0,51.011,0,76.516c0,12.587-0.131,25.222-1.635,37.691
				c-1.093,9.033-3.367,17.526-6.78,25.375c-3.414,7.85-7.778,13.339-13.135,16.437c-5.663,3.274-10.063,3.853-13.189,1.772
				c-3.128-2.08-5.544-6.354-7.253-12.803c-1.709-6.445-2.717-15.029-3.026-25.75c6.685-5.959,10.021-8.965,16.662-15.021
				c0.024,6.199,0.243,10.687,0.651,13.462c0.409,2.776,1.096,4.851,2.071,6.116c0.642,0.833,1.607,0.9,2.835,0.193
				c1.938-1.119,3.448-3.752,4.354-7.895c0.904-4.143,1.444-10.502,1.444-19.076
				C1747.333,1640.034,1747.333,1611.112,1747.333,1582.189z"/>
			<path d="M1807.724,1662.337c-7.672,5.021-11.521,7.493-19.257,12.372c-1.074,9.979-1.61,14.964-2.688,24.938
				c-6.963,4.37-10.458,6.528-17.471,10.785c6.972-51.231,13.9-102.473,20.798-153.716c7.428-4.69,11.13-7.065,18.501-11.889
				c6.828,42.396,13.653,84.794,20.453,127.196c-7.016,4.767-10.535,7.119-17.604,11.768
				C1809.365,1675.211,1808.819,1670.921,1807.724,1662.337z M1804.218,1634.169c-2.022-15.57-4.03-31.144-6.052-46.715
				c-2,18.154-3.999,36.309-6.003,54.462C1796.998,1638.846,1799.409,1637.295,1804.218,1634.169z"/>
		</g>
	</g>
</g>
<polygon fill="#FFF500" points="1048.958,223.067 1056.864,247.398 1082.449,247.398 1061.751,262.437 1069.657,286.769 
	1048.958,271.731 1028.261,286.769 1036.167,262.437 1015.469,247.398 1041.053,247.398 "/>
</svg>
